<svg xmlns="http://www.w3.org/2000/svg" xmlns:xlink="http://www.w3.org/1999/xlink" width="1080" zoomAndPan="magnify" viewBox="0 0 810 809.999993" height="1080" preserveAspectRatio="xMidYMid meet" version="1.2"><defs><clipPath id="3efe6cf1f4"><path d="M 161.472656 456 L 648.222656 456 L 648.222656 487 L 161.472656 487 Z M 161.472656 456 "/></clipPath><clipPath id="61923dd32c"><path d="M 391 31.238281 L 422 31.238281 L 422 150 L 391 150 Z M 391 31.238281 "/></clipPath></defs><g id="3a5ffe23a4"><g clip-rule="nonzero" clip-path="url(#3efe6cf1f4)"><path style=" stroke:none;fill-rule:nonzero;fill:#ffffff;fill-opacity:1;" d="M 176.292969 486.605469 L 633.402344 486.605469 C 641.589844 486.605469 648.222656 479.972656 648.222656 471.785156 C 648.222656 463.609375 641.589844 456.964844 633.402344 456.964844 L 176.292969 456.964844 C 168.109375 456.964844 161.472656 463.609375 161.472656 471.785156 C 161.472656 479.972656 168.109375 486.605469 176.292969 486.605469 "/></g><path style=" stroke:none;fill-rule:nonzero;fill:#ffffff;fill-opacity:1;" d="M 269.222656 422.609375 L 224.328125 422.609375 C 224.328125 330.605469 294.648438 246.542969 386.65625 246.542969 C 324.722656 246.542969 269.222656 341.851562 269.222656 422.609375 Z M 404.847656 180.917969 C 389.226562 180.917969 376.558594 193.585938 376.558594 209.207031 C 376.558594 214.101562 377.800781 218.695312 379.980469 222.707031 C 268.921875 235.074219 182.558594 329.261719 182.558594 443.617188 L 627.136719 443.617188 C 627.136719 329.261719 540.777344 235.074219 429.714844 222.707031 C 431.898438 218.695312 433.140625 214.101562 433.140625 209.207031 C 433.140625 193.585938 420.46875 180.917969 404.847656 180.917969 "/><path style=" stroke:none;fill-rule:nonzero;fill:#ffffff;fill-opacity:1;" d="M 327.613281 180.917969 C 388.738281 156.347656 309.878906 77.613281 344.535156 61.300781 C 290.546875 73.648438 371.605469 159.089844 327.613281 180.917969 "/><path style=" stroke:none;fill-rule:nonzero;fill:#ffffff;fill-opacity:1;" d="M 469.105469 181.027344 C 522.753906 167.90625 439.445312 83.648438 482.84375 61.191406 C 422.390625 86.617188 503.320312 164.226562 469.105469 181.027344 "/><g clip-rule="nonzero" clip-path="url(#61923dd32c)"><path style=" stroke:none;fill-rule:nonzero;fill:#ffffff;fill-opacity:1;" d="M 421.609375 31.597656 C 357.984375 52.484375 427.945312 135.605469 391.609375 149.824219 C 446.777344 140.6875 375.359375 50.773438 421.609375 31.597656 "/></g><g style="fill:#ffffff;fill-opacity:1;"><g transform="translate(159.063127, 689.179092)"><path style="stroke:none" d="M 77.109375 4.71875 C 67.304688 4.71875 58.148438 3.515625 49.640625 1.109375 C 41.140625 -1.296875 33.789062 -4.625 27.59375 -8.875 C 21.40625 -13.125 16.503906 -18.066406 12.890625 -23.703125 C 9.285156 -29.347656 7.484375 -35.5 7.484375 -42.15625 C 7.484375 -46.039062 8.222656 -49.644531 9.703125 -52.96875 C 11.179688 -56.300781 13.171875 -59.21875 15.671875 -61.71875 C 18.171875 -64.21875 21.128906 -66.207031 24.546875 -67.6875 C 27.972656 -69.164062 31.625 -69.90625 35.5 -69.90625 C 39.195312 -69.90625 42.710938 -69.207031 46.046875 -67.8125 C 49.378906 -66.425781 53.078125 -64.164062 57.140625 -61.03125 C 60.472656 -58.4375 63.109375 -56.398438 65.046875 -54.921875 C 66.984375 -53.441406 68.597656 -52.285156 69.890625 -51.453125 C 71.191406 -50.617188 72.347656 -50.109375 73.359375 -49.921875 C 74.378906 -49.742188 75.445312 -49.65625 76.5625 -49.65625 C 78.78125 -49.65625 80.582031 -50.394531 81.96875 -51.875 C 83.351562 -53.351562 84.046875 -55.296875 84.046875 -57.703125 C 84.046875 -61.578125 81.734375 -64.71875 77.109375 -67.125 C 75.453125 -68.050781 73.1875 -69.019531 70.3125 -70.03125 C 67.445312 -71.050781 63.519531 -72.394531 58.53125 -74.0625 C 54.09375 -75.539062 50.394531 -76.832031 47.4375 -77.9375 C 44.476562 -79.050781 41.929688 -80.160156 39.796875 -81.265625 C 37.671875 -82.378906 35.773438 -83.488281 34.109375 -84.59375 C 32.453125 -85.707031 30.789062 -87.003906 29.125 -88.484375 C 23.394531 -93.296875 19.09375 -99.125 16.21875 -105.96875 C 13.351562 -112.8125 11.921875 -120.390625 11.921875 -128.703125 C 11.921875 -137.765625 13.582031 -145.992188 16.90625 -153.390625 C 20.238281 -160.796875 24.863281 -167.175781 30.78125 -172.53125 C 36.707031 -177.894531 43.875 -182.054688 52.28125 -185.015625 C 60.695312 -187.972656 69.898438 -189.453125 79.890625 -189.453125 C 88.210938 -189.453125 95.976562 -188.390625 103.1875 -186.265625 C 110.394531 -184.140625 116.726562 -181.273438 122.1875 -177.671875 C 127.644531 -174.066406 131.898438 -169.8125 134.953125 -164.90625 C 138.003906 -160.007812 139.53125 -154.691406 139.53125 -148.953125 C 139.53125 -141.554688 137.265625 -135.5 132.734375 -130.78125 C 128.203125 -126.070312 122.421875 -123.71875 115.390625 -123.71875 C 111.140625 -123.71875 107.164062 -124.503906 103.46875 -126.078125 C 99.769531 -127.648438 95.421875 -130.375 90.421875 -134.25 C 87.097656 -136.84375 84.507812 -138.601562 82.65625 -139.53125 C 80.8125 -140.457031 79.148438 -140.921875 77.671875 -140.921875 C 75.640625 -140.921875 73.882812 -140.222656 72.40625 -138.828125 C 70.925781 -137.441406 70.1875 -135.734375 70.1875 -133.703125 C 70.1875 -130.929688 71.429688 -128.710938 73.921875 -127.046875 C 76.421875 -125.378906 81.367188 -123.34375 88.765625 -120.9375 C 96.535156 -118.539062 103.976562 -115.628906 111.09375 -112.203125 C 118.21875 -108.785156 123.90625 -105.226562 128.15625 -101.53125 C 133.882812 -96.71875 138.367188 -90.472656 141.609375 -82.796875 C 144.847656 -75.128906 146.46875 -66.851562 146.46875 -57.96875 C 146.46875 -49.644531 144.941406 -41.644531 141.890625 -33.96875 C 138.835938 -26.300781 134.535156 -19.601562 128.984375 -13.875 C 122.703125 -7.582031 115.351562 -2.910156 106.9375 0.140625 C 98.519531 3.191406 88.578125 4.71875 77.109375 4.71875 Z M 103.46875 -138.140625 C 106.238281 -136.472656 108.546875 -135.269531 110.390625 -134.53125 C 112.242188 -133.789062 114.191406 -133.421875 116.234375 -133.421875 C 119.554688 -133.421875 122.507812 -134.53125 125.09375 -136.75 C 127.6875 -138.96875 128.984375 -141.554688 128.984375 -144.515625 C 128.984375 -145.992188 128.519531 -147.242188 127.59375 -148.265625 C 126.675781 -149.285156 125.476562 -149.796875 124 -149.796875 C 122.332031 -149.796875 120.941406 -148.960938 119.828125 -147.296875 C 118.910156 -146.003906 118.082031 -145.171875 117.34375 -144.796875 C 116.601562 -144.429688 115.582031 -144.25 114.28125 -144.25 C 113.351562 -144.25 112.289062 -144.382812 111.09375 -144.65625 C 109.894531 -144.9375 108.832031 -145.539062 107.90625 -146.46875 L 100.421875 -151.171875 C 95.054688 -154.867188 90.753906 -157.410156 87.515625 -158.796875 C 84.273438 -160.191406 81.175781 -160.890625 78.21875 -160.890625 C 75.082031 -160.890625 72.445312 -160.238281 70.3125 -158.9375 C 68.1875 -157.644531 67.125 -155.984375 67.125 -153.953125 C 67.125 -151.179688 68.515625 -149.796875 71.296875 -149.796875 C 72.035156 -149.796875 72.585938 -149.882812 72.953125 -150.0625 L 75.734375 -150.90625 C 76.835938 -151.269531 77.757812 -151.453125 78.5 -151.453125 C 79.976562 -151.453125 81.503906 -151.082031 83.078125 -150.34375 C 84.648438 -149.601562 87.191406 -148.21875 90.703125 -146.1875 L 97.09375 -142.296875 Z M 36.34375 -145.90625 C 36.519531 -146.457031 36.65625 -146.960938 36.75 -147.421875 C 36.84375 -147.890625 36.890625 -148.492188 36.890625 -149.234375 C 36.890625 -152.191406 35.316406 -153.671875 32.171875 -153.671875 C 29.585938 -153.671875 27.367188 -151.40625 25.515625 -146.875 C 23.671875 -142.34375 22.75 -136.84375 22.75 -130.375 C 22.75 -117.976562 26.816406 -107.53125 34.953125 -99.03125 C 36.796875 -97.175781 38.6875 -95.554688 40.625 -94.171875 C 42.570312 -92.785156 44.835938 -91.398438 47.421875 -90.015625 C 50.015625 -88.628906 53.066406 -87.195312 56.578125 -85.71875 C 60.097656 -84.238281 64.257812 -82.664062 69.0625 -81 C 74.25 -79.144531 78.410156 -77.476562 81.546875 -76 C 84.691406 -74.519531 87.140625 -73.039062 88.890625 -71.5625 C 90.648438 -70.082031 91.898438 -68.414062 92.640625 -66.5625 C 93.390625 -64.71875 93.945312 -62.410156 94.3125 -59.640625 C 94.6875 -57.046875 95.148438 -55.285156 95.703125 -54.359375 C 96.253906 -53.441406 97.269531 -52.984375 98.75 -52.984375 C 102.445312 -52.984375 104.296875 -55.753906 104.296875 -61.296875 C 104.296875 -67.773438 101.890625 -73.234375 97.078125 -77.671875 C 92.273438 -82.109375 84.328125 -86.269531 73.234375 -90.15625 C 68.972656 -91.632812 65.6875 -92.789062 63.375 -93.625 C 61.070312 -94.457031 59.179688 -95.148438 57.703125 -95.703125 C 56.222656 -96.253906 54.972656 -96.851562 53.953125 -97.5 C 52.929688 -98.144531 51.59375 -98.929688 49.9375 -99.859375 C 38.28125 -106.703125 32.453125 -116.316406 32.453125 -128.703125 C 32.453125 -130.742188 32.632812 -132.960938 33 -135.359375 C 33.375 -137.765625 33.929688 -139.800781 34.671875 -141.46875 Z M 77.109375 -5 C 85.617188 -5 93.429688 -6.148438 100.546875 -8.453125 C 107.671875 -10.765625 113.640625 -14.050781 118.453125 -18.3125 C 121.773438 -21.082031 123.4375 -23.578125 123.4375 -25.796875 C 123.4375 -27.085938 122.972656 -28.148438 122.046875 -28.984375 C 121.128906 -29.816406 120.113281 -30.234375 119 -30.234375 C 117.519531 -30.234375 115.851562 -29.398438 114 -27.734375 C 108.457031 -23.109375 102.957031 -19.867188 97.5 -18.015625 C 92.039062 -16.171875 85.429688 -15.25 77.671875 -15.25 C 71.191406 -15.25 64.992188 -15.988281 59.078125 -17.46875 C 53.160156 -18.945312 47.984375 -20.890625 43.546875 -23.296875 C 39.109375 -25.703125 35.546875 -28.476562 32.859375 -31.625 C 30.179688 -34.769531 28.84375 -38.003906 28.84375 -41.328125 C 28.84375 -43.546875 29.492188 -45.675781 30.796875 -47.71875 C 31.710938 -49.007812 32.265625 -49.882812 32.453125 -50.34375 C 32.640625 -50.8125 32.734375 -51.503906 32.734375 -52.421875 C 32.734375 -55.566406 31.160156 -57.140625 28.015625 -57.140625 C 25.429688 -57.140625 23.210938 -55.707031 21.359375 -52.84375 C 19.503906 -49.976562 18.578125 -46.414062 18.578125 -42.15625 C 18.578125 -37.164062 20.101562 -32.40625 23.15625 -27.875 C 26.207031 -23.34375 30.414062 -19.363281 35.78125 -15.9375 C 41.144531 -12.519531 47.335938 -9.84375 54.359375 -7.90625 C 61.390625 -5.96875 68.972656 -5 77.109375 -5 Z M 41.046875 -166.15625 C 39.566406 -166.15625 38.269531 -165.597656 37.15625 -164.484375 C 36.050781 -163.378906 35.5 -162.085938 35.5 -160.609375 C 35.5 -158.941406 36.050781 -157.550781 37.15625 -156.4375 C 38.269531 -155.332031 39.566406 -154.78125 41.046875 -154.78125 C 42.523438 -154.78125 43.820312 -155.332031 44.9375 -156.4375 C 46.050781 -157.550781 46.609375 -158.941406 46.609375 -160.609375 C 46.609375 -162.085938 46.050781 -163.378906 44.9375 -164.484375 C 43.820312 -165.597656 42.523438 -166.15625 41.046875 -166.15625 Z M 41.046875 -166.15625 "/></g></g><g style="fill:#ffffff;fill-opacity:1;"><g transform="translate(314.676984, 689.179092)"><path style="stroke:none" d="M 56.03125 0 C 52.144531 0 48.816406 -0.046875 46.046875 -0.140625 C 43.273438 -0.234375 40.914062 -0.460938 38.96875 -0.828125 C 37.03125 -1.203125 35.273438 -1.664062 33.703125 -2.21875 C 32.128906 -2.769531 30.507812 -3.507812 28.84375 -4.4375 C 25.707031 -6.289062 23.023438 -8.601562 20.796875 -11.375 C 18.578125 -14.144531 17.007812 -17.101562 16.09375 -20.25 C 15.351562 -23.019531 14.890625 -25.835938 14.703125 -28.703125 C 14.515625 -31.578125 14.421875 -36.34375 14.421875 -43 L 14.421875 -143.40625 C 14.421875 -147.289062 14.421875 -150.4375 14.421875 -152.84375 C 14.421875 -155.25 14.515625 -157.234375 14.703125 -158.796875 C 14.890625 -160.367188 15.164062 -161.710938 15.53125 -162.828125 C 15.90625 -163.941406 16.367188 -165.238281 16.921875 -166.71875 C 18.210938 -170.226562 20.195312 -173.320312 22.875 -176 C 25.5625 -178.6875 28.476562 -180.675781 31.625 -181.96875 C 33.289062 -182.519531 34.816406 -183.023438 36.203125 -183.484375 C 37.585938 -183.953125 39.203125 -184.28125 41.046875 -184.46875 C 42.898438 -184.65625 45.164062 -184.789062 47.84375 -184.875 C 50.53125 -184.96875 53.90625 -185.015625 57.96875 -185.015625 L 94.59375 -185.015625 C 98.65625 -185.015625 101.9375 -185.015625 104.4375 -185.015625 C 106.9375 -185.015625 108.925781 -184.96875 110.40625 -184.875 C 111.882812 -184.789062 113.082031 -184.65625 114 -184.46875 C 114.925781 -184.28125 115.945312 -184.09375 117.0625 -183.90625 C 123.53125 -182.425781 128.796875 -179.191406 132.859375 -174.203125 C 136.929688 -169.210938 138.96875 -163.476562 138.96875 -157 C 138.96875 -152.5625 138.085938 -148.351562 136.328125 -144.375 C 134.578125 -140.40625 132.128906 -137.125 128.984375 -134.53125 C 126.210938 -132.125 123.066406 -130.410156 119.546875 -129.390625 C 116.035156 -128.378906 111.414062 -127.875 105.6875 -127.875 L 75.171875 -127.875 L 75.171875 -115.109375 L 97.09375 -115.109375 C 105.78125 -115.109375 112.4375 -113.210938 117.0625 -109.421875 C 121.6875 -105.640625 124 -100.234375 124 -93.203125 C 124 -85.992188 121.316406 -80.171875 115.953125 -75.734375 C 113.546875 -73.878906 111 -72.628906 108.3125 -71.984375 C 105.632812 -71.335938 101.894531 -71.015625 97.09375 -71.015625 L 75.171875 -71.015625 L 75.171875 -57.140625 L 103.1875 -57.140625 C 109.84375 -57.140625 114.972656 -56.628906 118.578125 -55.609375 C 122.191406 -54.597656 125.566406 -52.796875 128.703125 -50.203125 C 135.367188 -44.472656 138.703125 -37.265625 138.703125 -28.578125 C 138.703125 -24.316406 137.820312 -20.195312 136.0625 -16.21875 C 134.300781 -12.25 131.847656 -8.96875 128.703125 -6.375 C 127.222656 -5.082031 125.695312 -4.019531 124.125 -3.1875 C 122.5625 -2.351562 120.851562 -1.707031 119 -1.25 C 117.15625 -0.789062 114.984375 -0.46875 112.484375 -0.28125 C 109.984375 -0.09375 106.976562 0 103.46875 0 Z M 79.609375 -81.546875 L 98.46875 -81.546875 C 103.09375 -81.546875 106.375 -82.007812 108.3125 -82.9375 C 110.257812 -83.863281 111.234375 -85.53125 111.234375 -87.9375 C 111.234375 -91.082031 109.753906 -92.65625 106.796875 -92.65625 C 106.242188 -92.65625 105.410156 -92.46875 104.296875 -92.09375 C 102.628906 -91.71875 101.425781 -91.484375 100.6875 -91.390625 C 99.945312 -91.304688 98.285156 -91.265625 95.703125 -91.265625 L 76.84375 -91.265625 C 72.957031 -91.265625 71.015625 -89.597656 71.015625 -86.265625 C 71.015625 -83.117188 73.328125 -81.546875 77.953125 -81.546875 Z M 105.40625 -10.546875 C 109.289062 -10.546875 112.203125 -10.726562 114.140625 -11.09375 C 116.085938 -11.46875 117.800781 -12.113281 119.28125 -13.03125 C 122.425781 -15.070312 124 -17.289062 124 -19.6875 C 124 -20.988281 123.582031 -22.097656 122.75 -23.015625 C 121.914062 -23.941406 120.851562 -24.40625 119.5625 -24.40625 C 119 -24.40625 118.441406 -24.265625 117.890625 -23.984375 C 117.335938 -23.710938 116.410156 -23.207031 115.109375 -22.46875 C 113.628906 -21.351562 112.148438 -20.65625 110.671875 -20.375 C 109.191406 -20.101562 106.695312 -19.96875 103.1875 -19.96875 L 66.578125 -19.96875 L 63.796875 -20.25 C 59.910156 -19.875 57.96875 -18.300781 57.96875 -15.53125 C 57.96875 -13.5 58.566406 -12.160156 59.765625 -11.515625 C 60.972656 -10.867188 63.242188 -10.546875 66.578125 -10.546875 Z M 34.125 -171.15625 C 32.644531 -171.15625 31.347656 -170.597656 30.234375 -169.484375 C 29.128906 -168.378906 28.578125 -167.085938 28.578125 -165.609375 C 28.578125 -164.128906 29.128906 -162.832031 30.234375 -161.71875 C 31.347656 -160.601562 32.644531 -160.046875 34.125 -160.046875 C 35.601562 -160.046875 36.894531 -160.601562 38 -161.71875 C 39.113281 -162.832031 39.671875 -164.128906 39.671875 -165.609375 C 39.671875 -167.085938 39.113281 -168.378906 38 -169.484375 C 36.894531 -170.597656 35.601562 -171.15625 34.125 -171.15625 Z M 30.796875 -18.859375 C 33.929688 -18.859375 35.5 -20.335938 35.5 -23.296875 C 35.5 -23.671875 35.453125 -24.039062 35.359375 -24.40625 C 35.273438 -24.78125 35.234375 -25.242188 35.234375 -25.796875 C 34.859375 -27.085938 34.625 -28.195312 34.53125 -29.125 C 34.4375 -30.050781 34.390625 -31.53125 34.390625 -33.5625 L 34.390625 -148.40625 C 34.390625 -151.914062 34.113281 -154.222656 33.5625 -155.328125 C 33.007812 -156.441406 31.71875 -157 29.6875 -157 C 27.644531 -157 26.347656 -156.394531 25.796875 -155.1875 C 25.242188 -153.988281 24.96875 -151.726562 24.96875 -148.40625 L 24.96875 -36.609375 C 24.96875 -29.585938 25.335938 -24.875 26.078125 -22.46875 C 26.816406 -20.0625 28.390625 -18.859375 30.796875 -18.859375 Z M 76.5625 -148.125 C 72.863281 -148.125 71.015625 -146.550781 71.015625 -143.40625 C 71.015625 -141.375 71.566406 -140.035156 72.671875 -139.390625 C 73.785156 -138.742188 76.097656 -138.421875 79.609375 -138.421875 L 105.40625 -138.421875 C 109.476562 -138.421875 112.4375 -138.601562 114.28125 -138.96875 C 116.132812 -139.34375 117.800781 -139.992188 119.28125 -140.921875 C 122.425781 -142.953125 124 -145.171875 124 -147.578125 C 124 -148.867188 123.582031 -149.972656 122.75 -150.890625 C 121.914062 -151.816406 120.851562 -152.28125 119.5625 -152.28125 C 118.632812 -152.28125 117.148438 -151.632812 115.109375 -150.34375 C 113.453125 -149.414062 111.972656 -148.765625 110.671875 -148.390625 C 109.378906 -148.023438 106.882812 -147.84375 103.1875 -147.84375 L 79.609375 -148.125 Z M 76.5625 -148.125 "/></g></g><g style="fill:#ffffff;fill-opacity:1;"><g transform="translate(460.582338, 689.179092)"><path style="stroke:none" d="M 66.84375 -23.859375 C 62.96875 -14.984375 58.578125 -8.554688 53.671875 -4.578125 C 48.773438 -0.597656 42.628906 1.390625 35.234375 1.390625 C 30.972656 1.390625 26.992188 0.601562 23.296875 -0.96875 C 19.597656 -2.539062 16.40625 -4.710938 13.71875 -7.484375 C 11.039062 -10.265625 8.914062 -13.503906 7.34375 -17.203125 C 5.78125 -20.898438 5 -24.875 5 -29.125 C 5 -34.300781 6.289062 -39.664062 8.875 -45.21875 L 66.015625 -166.4375 C 72.304688 -179.75 81.925781 -186.40625 94.875 -186.40625 C 108 -186.40625 117.796875 -179.5625 124.265625 -165.875 L 181.6875 -43.546875 C 184.09375 -38.921875 185.296875 -34.019531 185.296875 -28.84375 C 185.296875 -24.59375 184.460938 -20.664062 182.796875 -17.0625 C 181.128906 -13.457031 178.910156 -10.265625 176.140625 -7.484375 C 173.367188 -4.710938 170.132812 -2.539062 166.4375 -0.96875 C 162.738281 0.601562 158.757812 1.390625 154.5 1.390625 C 147.476562 1.390625 141.609375 -0.457031 136.890625 -4.15625 C 132.171875 -7.851562 127.6875 -14.421875 123.4375 -23.859375 Z M 104.859375 -67.40625 L 95.421875 -90.421875 L 84.875 -67.40625 Z M 29.6875 -42.15625 L 78.5 -147.296875 C 79.425781 -148.960938 79.976562 -150.207031 80.15625 -151.03125 C 80.34375 -151.863281 80.4375 -152.5625 80.4375 -153.125 C 80.4375 -154.226562 80.019531 -155.195312 79.1875 -156.03125 C 78.363281 -156.863281 77.210938 -157.28125 75.734375 -157.28125 C 74.617188 -157.28125 73.644531 -156.910156 72.8125 -156.171875 C 71.976562 -155.429688 71.101562 -153.953125 70.1875 -151.734375 L 22.1875 -49.09375 C 19.601562 -43.175781 17.847656 -38.921875 16.921875 -36.328125 C 15.992188 -33.742188 15.53125 -31.34375 15.53125 -29.125 C 15.53125 -26.71875 16.035156 -24.3125 17.046875 -21.90625 C 18.066406 -19.507812 19.363281 -17.382812 20.9375 -15.53125 C 22.507812 -13.6875 24.3125 -12.207031 26.34375 -11.09375 C 28.382812 -9.988281 30.421875 -9.4375 32.453125 -9.4375 C 36.148438 -9.4375 38 -11.191406 38 -14.703125 C 38 -16.921875 36.519531 -18.492188 33.5625 -19.421875 C 30.976562 -20.160156 28.945312 -21.40625 27.46875 -23.15625 C 25.988281 -24.914062 25.25 -27.09375 25.25 -29.6875 C 25.25 -31.71875 26.265625 -35.046875 28.296875 -39.671875 Z M 124 -71.84375 L 109.84375 -104.578125 C 108.738281 -107.160156 107.859375 -108.867188 107.203125 -109.703125 C 106.554688 -110.535156 105.585938 -110.953125 104.296875 -110.953125 C 103.003906 -110.953125 101.894531 -110.488281 100.96875 -109.5625 C 100.039062 -108.644531 99.578125 -107.535156 99.578125 -106.234375 C 99.578125 -105.679688 99.71875 -104.894531 100 -103.875 C 100.28125 -102.863281 100.695312 -101.894531 101.25 -100.96875 L 115.671875 -68.234375 C 116.785156 -65.648438 117.710938 -63.988281 118.453125 -63.25 C 119.191406 -62.507812 120.207031 -62.140625 121.5 -62.140625 C 124.457031 -62.140625 125.9375 -63.523438 125.9375 -66.296875 C 125.9375 -67.398438 125.660156 -68.507812 125.109375 -69.625 Z M 112.625 -34.390625 L 116.78125 -34.390625 C 119.738281 -34.390625 122.09375 -34.296875 123.84375 -34.109375 C 125.601562 -33.929688 127.035156 -33.5625 128.140625 -33 C 129.253906 -32.445312 130.226562 -31.613281 131.0625 -30.5 C 131.894531 -29.394531 132.773438 -27.921875 133.703125 -26.078125 C 135.921875 -21.816406 137.535156 -18.945312 138.546875 -17.46875 C 139.566406 -15.988281 140.726562 -14.601562 142.03125 -13.3125 C 144.988281 -10.539062 148.5 -9.15625 152.5625 -9.15625 C 156.445312 -9.15625 158.390625 -10.910156 158.390625 -14.421875 C 158.390625 -17.015625 156.816406 -18.585938 153.671875 -19.140625 C 151.085938 -19.503906 149.285156 -20.101562 148.265625 -20.9375 C 147.242188 -21.769531 145.992188 -23.578125 144.515625 -26.359375 C 142.484375 -30.234375 140.726562 -33.328125 139.25 -35.640625 C 137.769531 -37.953125 136.101562 -39.707031 134.25 -40.90625 C 132.40625 -42.113281 130.1875 -42.898438 127.59375 -43.265625 C 125.007812 -43.640625 121.773438 -43.828125 117.890625 -43.828125 L 70.734375 -43.828125 C 67.222656 -43.828125 64.910156 -43.503906 63.796875 -42.859375 C 62.691406 -42.210938 62.140625 -40.867188 62.140625 -38.828125 C 62.140625 -35.867188 63.894531 -34.390625 67.40625 -34.390625 Z M 83.21875 -170.875 C 81.738281 -170.875 80.441406 -170.316406 79.328125 -169.203125 C 78.222656 -168.097656 77.671875 -166.804688 77.671875 -165.328125 C 77.671875 -163.847656 78.222656 -162.550781 79.328125 -161.4375 C 80.441406 -160.332031 81.738281 -159.78125 83.21875 -159.78125 C 84.695312 -159.78125 85.988281 -160.332031 87.09375 -161.4375 C 88.207031 -162.550781 88.765625 -163.847656 88.765625 -165.328125 C 88.765625 -166.804688 88.207031 -168.097656 87.09375 -169.203125 C 85.988281 -170.316406 84.695312 -170.875 83.21875 -170.875 Z M 83.21875 -170.875 "/></g></g><g style="fill:#ffffff;fill-opacity:1;"><g transform="translate(163.944742, 783.347075)"><path style="stroke:none" d="M 50.265625 -26.875 C 51.191406 -27.800781 52.332031 -28.5625 53.6875 -29.15625 C 55.050781 -29.757812 56.429688 -30.0625 57.828125 -30.0625 C 59.285156 -30.0625 60.675781 -29.757812 62 -29.15625 C 63.332031 -28.5625 64.492188 -27.765625 65.484375 -26.765625 C 66.484375 -25.773438 67.28125 -24.632812 67.875 -23.34375 C 68.476562 -22.050781 68.78125 -20.707031 68.78125 -19.3125 C 68.78125 -15.332031 66.390625 -11.25 61.609375 -7.0625 C 58.359375 -4.28125 54.738281 -2.125 50.75 -0.59375 C 46.769531 0.925781 42.660156 1.6875 38.421875 1.6875 C 33.578125 1.6875 29.015625 0.773438 24.734375 -1.046875 C 20.453125 -2.867188 16.71875 -5.335938 13.53125 -8.453125 C 10.351562 -11.578125 7.847656 -15.257812 6.015625 -19.5 C 4.191406 -23.75 3.28125 -28.265625 3.28125 -33.046875 C 3.28125 -37.890625 4.207031 -42.429688 6.0625 -46.671875 C 7.925781 -50.921875 10.445312 -54.617188 13.625 -57.765625 C 16.8125 -60.921875 20.546875 -63.410156 24.828125 -65.234375 C 29.109375 -67.066406 33.671875 -67.984375 38.515625 -67.984375 C 42.566406 -67.984375 46.484375 -67.300781 50.265625 -65.9375 C 54.046875 -64.582031 57.53125 -62.578125 60.71875 -59.921875 C 66.09375 -55.609375 68.78125 -51.226562 68.78125 -46.78125 C 68.78125 -45.25 68.492188 -43.820312 67.921875 -42.5 C 67.359375 -41.175781 66.578125 -40.015625 65.578125 -39.015625 C 64.585938 -38.015625 63.425781 -37.234375 62.09375 -36.671875 C 60.769531 -36.109375 59.347656 -35.828125 57.828125 -35.828125 C 56.503906 -35.828125 55.210938 -36.078125 53.953125 -36.578125 C 52.691406 -37.078125 51.691406 -37.722656 50.953125 -38.515625 L 47.78125 -42 C 46.582031 -43.332031 45.148438 -44.34375 43.484375 -45.03125 C 41.828125 -45.726562 40.101562 -46.078125 38.3125 -46.078125 C 36.519531 -46.078125 34.828125 -45.742188 33.234375 -45.078125 C 31.648438 -44.421875 30.273438 -43.492188 29.109375 -42.296875 C 27.953125 -41.109375 27.039062 -39.71875 26.375 -38.125 C 25.707031 -36.53125 25.375 -34.835938 25.375 -33.046875 C 25.375 -31.253906 25.707031 -29.578125 26.375 -28.015625 C 27.039062 -26.453125 27.953125 -25.070312 29.109375 -23.875 C 30.273438 -22.6875 31.632812 -21.757812 33.1875 -21.09375 C 34.75 -20.4375 36.425781 -20.109375 38.21875 -20.109375 C 40.007812 -20.109375 41.75 -20.488281 43.4375 -21.25 C 45.132812 -22.007812 46.644531 -23.085938 47.96875 -24.484375 Z M 10.65625 -33.34375 C 10.65625 -35.664062 11 -38.050781 11.6875 -40.5 C 12.382812 -42.957031 13.332031 -45.148438 14.53125 -47.078125 C 15 -47.804688 15.28125 -48.285156 15.375 -48.515625 C 15.476562 -48.753906 15.53125 -49.039062 15.53125 -49.375 C 15.53125 -49.769531 15.363281 -50.113281 15.03125 -50.40625 C 14.695312 -50.707031 14.296875 -50.859375 13.828125 -50.859375 C 13.035156 -50.859375 12.242188 -50.128906 11.453125 -48.671875 C 8.660156 -43.691406 7.265625 -38.484375 7.265625 -33.046875 C 7.265625 -28.660156 8.078125 -24.5625 9.703125 -20.75 C 11.328125 -16.9375 13.53125 -13.632812 16.3125 -10.84375 C 19.101562 -8.0625 22.40625 -5.859375 26.21875 -4.234375 C 30.039062 -2.609375 34.140625 -1.796875 38.515625 -1.796875 C 41.035156 -1.796875 43.539062 -2.09375 46.03125 -2.6875 C 48.519531 -3.28125 50.828125 -4.175781 52.953125 -5.375 C 54.140625 -6.039062 54.734375 -6.738281 54.734375 -7.46875 C 54.734375 -7.863281 54.566406 -8.207031 54.234375 -8.5 C 53.910156 -8.800781 53.550781 -8.953125 53.15625 -8.953125 C 52.882812 -8.953125 52.648438 -8.921875 52.453125 -8.859375 C 52.253906 -8.796875 51.890625 -8.628906 51.359375 -8.359375 C 46.972656 -6.234375 42.691406 -5.171875 38.515625 -5.171875 C 34.597656 -5.171875 30.945312 -5.898438 27.5625 -7.359375 C 24.1875 -8.828125 21.234375 -10.820312 18.703125 -13.34375 C 16.179688 -15.863281 14.207031 -18.832031 12.78125 -22.25 C 11.363281 -25.664062 10.65625 -29.363281 10.65625 -33.34375 Z M 53.84375 -45.984375 C 49.664062 -50.765625 44.59375 -53.15625 38.625 -53.15625 C 37.226562 -53.15625 35.878906 -53.035156 34.578125 -52.796875 C 33.285156 -52.566406 32.109375 -52.253906 31.046875 -51.859375 C 29.992188 -51.460938 29.148438 -51.015625 28.515625 -50.515625 C 27.878906 -50.015625 27.5625 -49.5 27.5625 -48.96875 C 27.5625 -48.570312 27.726562 -48.207031 28.0625 -47.875 C 28.394531 -47.539062 28.757812 -47.375 29.15625 -47.375 C 29.425781 -47.375 29.859375 -47.507812 30.453125 -47.78125 C 32.847656 -49.164062 35.46875 -49.859375 38.3125 -49.859375 C 43.5625 -49.859375 48.007812 -47.738281 51.65625 -43.5 C 53.113281 -41.90625 54.238281 -40.859375 55.03125 -40.359375 C 55.832031 -39.859375 56.863281 -39.609375 58.125 -39.609375 C 59.519531 -39.609375 60.75 -39.921875 61.8125 -40.546875 C 62.875 -41.179688 63.40625 -41.898438 63.40625 -42.703125 C 63.40625 -43.234375 63.238281 -43.660156 62.90625 -43.984375 C 62.570312 -44.316406 62.171875 -44.484375 61.703125 -44.484375 C 61.304688 -44.484375 60.8125 -44.285156 60.21875 -43.890625 C 59.75 -43.554688 59.398438 -43.335938 59.171875 -43.234375 C 58.941406 -43.140625 58.59375 -43.09375 58.125 -43.09375 C 57.457031 -43.09375 56.890625 -43.207031 56.421875 -43.4375 C 55.960938 -43.675781 55.398438 -44.160156 54.734375 -44.890625 Z M 17.421875 -55.4375 C 16.890625 -55.4375 16.421875 -55.238281 16.015625 -54.84375 C 15.617188 -54.445312 15.421875 -53.984375 15.421875 -53.453125 C 15.421875 -52.847656 15.617188 -52.347656 16.015625 -51.953125 C 16.421875 -51.554688 16.890625 -51.359375 17.421875 -51.359375 C 17.953125 -51.359375 18.414062 -51.554688 18.8125 -51.953125 C 19.207031 -52.347656 19.40625 -52.847656 19.40625 -53.453125 C 19.40625 -53.984375 19.207031 -54.445312 18.8125 -54.84375 C 18.414062 -55.238281 17.953125 -55.4375 17.421875 -55.4375 Z M 17.421875 -55.4375 "/></g></g><g style="fill:#ffffff;fill-opacity:1;"><g transform="translate(235.202639, 783.347075)"><path style="stroke:none" d="M 23.984375 -8.5625 C 22.585938 -5.375 21.007812 -3.066406 19.25 -1.640625 C 17.5 -0.210938 15.296875 0.5 12.640625 0.5 C 11.109375 0.5 9.679688 0.21875 8.359375 -0.34375 C 7.035156 -0.90625 5.890625 -1.6875 4.921875 -2.6875 C 3.960938 -3.6875 3.203125 -4.847656 2.640625 -6.171875 C 2.078125 -7.492188 1.796875 -8.921875 1.796875 -10.453125 C 1.796875 -12.304688 2.257812 -14.226562 3.1875 -16.21875 L 23.6875 -59.71875 C 25.945312 -64.5 29.398438 -66.890625 34.046875 -66.890625 C 38.753906 -66.890625 42.269531 -64.429688 44.59375 -59.515625 L 65.1875 -15.625 C 66.050781 -13.96875 66.484375 -12.207031 66.484375 -10.34375 C 66.484375 -8.820312 66.179688 -7.414062 65.578125 -6.125 C 64.984375 -4.832031 64.1875 -3.6875 63.1875 -2.6875 C 62.195312 -1.6875 61.039062 -0.90625 59.71875 -0.34375 C 58.394531 0.21875 56.96875 0.5 55.4375 0.5 C 52.914062 0.5 50.804688 -0.160156 49.109375 -1.484375 C 47.421875 -2.816406 45.816406 -5.175781 44.296875 -8.5625 Z M 37.625 -24.1875 L 34.234375 -32.453125 L 30.453125 -24.1875 Z M 10.65625 -15.125 L 28.171875 -52.84375 C 28.503906 -53.445312 28.703125 -53.894531 28.765625 -54.1875 C 28.828125 -54.488281 28.859375 -54.738281 28.859375 -54.9375 C 28.859375 -55.332031 28.707031 -55.679688 28.40625 -55.984375 C 28.113281 -56.285156 27.703125 -56.4375 27.171875 -56.4375 C 26.773438 -56.4375 26.425781 -56.300781 26.125 -56.03125 C 25.820312 -55.769531 25.507812 -55.238281 25.1875 -54.4375 L 7.96875 -17.609375 C 7.03125 -15.492188 6.394531 -13.96875 6.0625 -13.03125 C 5.738281 -12.101562 5.578125 -11.242188 5.578125 -10.453125 C 5.578125 -9.585938 5.757812 -8.722656 6.125 -7.859375 C 6.488281 -6.992188 6.953125 -6.226562 7.515625 -5.5625 C 8.078125 -4.90625 8.722656 -4.378906 9.453125 -3.984375 C 10.179688 -3.585938 10.910156 -3.390625 11.640625 -3.390625 C 12.972656 -3.390625 13.640625 -4.019531 13.640625 -5.28125 C 13.640625 -6.070312 13.109375 -6.632812 12.046875 -6.96875 C 11.117188 -7.226562 10.390625 -7.671875 9.859375 -8.296875 C 9.328125 -8.929688 9.0625 -9.71875 9.0625 -10.65625 C 9.0625 -11.382812 9.425781 -12.578125 10.15625 -14.234375 Z M 44.484375 -25.78125 L 39.421875 -37.515625 C 39.015625 -38.453125 38.695312 -39.066406 38.46875 -39.359375 C 38.238281 -39.660156 37.890625 -39.8125 37.421875 -39.8125 C 36.960938 -39.8125 36.566406 -39.644531 36.234375 -39.3125 C 35.898438 -38.976562 35.734375 -38.582031 35.734375 -38.125 C 35.734375 -37.925781 35.78125 -37.644531 35.875 -37.28125 C 35.976562 -36.914062 36.128906 -36.566406 36.328125 -36.234375 L 41.5 -24.484375 C 41.90625 -23.554688 42.238281 -22.957031 42.5 -22.6875 C 42.757812 -22.425781 43.125 -22.296875 43.59375 -22.296875 C 44.65625 -22.296875 45.1875 -22.789062 45.1875 -23.78125 C 45.1875 -24.1875 45.085938 -24.585938 44.890625 -24.984375 Z M 40.40625 -12.34375 L 41.90625 -12.34375 C 42.96875 -12.34375 43.8125 -12.304688 44.4375 -12.234375 C 45.070312 -12.171875 45.585938 -12.039062 45.984375 -11.84375 C 46.378906 -11.644531 46.722656 -11.34375 47.015625 -10.9375 C 47.316406 -10.539062 47.632812 -10.015625 47.96875 -9.359375 C 48.769531 -7.828125 49.351562 -6.796875 49.71875 -6.265625 C 50.082031 -5.734375 50.492188 -5.238281 50.953125 -4.78125 C 52.015625 -3.78125 53.273438 -3.28125 54.734375 -3.28125 C 56.128906 -3.28125 56.828125 -3.910156 56.828125 -5.171875 C 56.828125 -6.097656 56.265625 -6.664062 55.140625 -6.875 C 54.210938 -7 53.566406 -7.210938 53.203125 -7.515625 C 52.835938 -7.816406 52.390625 -8.460938 51.859375 -9.453125 C 51.128906 -10.847656 50.5 -11.957031 49.96875 -12.78125 C 49.4375 -13.613281 48.835938 -14.242188 48.171875 -14.671875 C 47.503906 -15.109375 46.707031 -15.390625 45.78125 -15.515625 C 44.851562 -15.648438 43.691406 -15.71875 42.296875 -15.71875 L 25.375 -15.71875 C 24.113281 -15.71875 23.285156 -15.601562 22.890625 -15.375 C 22.492188 -15.144531 22.296875 -14.664062 22.296875 -13.9375 C 22.296875 -12.875 22.925781 -12.34375 24.1875 -12.34375 Z M 29.859375 -61.3125 C 29.328125 -61.3125 28.863281 -61.109375 28.46875 -60.703125 C 28.070312 -60.304688 27.875 -59.847656 27.875 -59.328125 C 27.875 -58.796875 28.070312 -58.328125 28.46875 -57.921875 C 28.863281 -57.523438 29.328125 -57.328125 29.859375 -57.328125 C 30.390625 -57.328125 30.851562 -57.523438 31.25 -57.921875 C 31.644531 -58.328125 31.84375 -58.796875 31.84375 -59.328125 C 31.84375 -59.847656 31.644531 -60.304688 31.25 -60.703125 C 30.851562 -61.109375 30.390625 -61.3125 29.859375 -61.3125 Z M 29.859375 -61.3125 "/></g></g><g style="fill:#ffffff;fill-opacity:1;"><g transform="translate(303.47487, 783.347075)"><path style="stroke:none" d="M 18.8125 -45.984375 L 13.828125 -45.984375 C 11.503906 -45.984375 9.628906 -46.226562 8.203125 -46.71875 C 6.785156 -47.21875 5.578125 -48.035156 4.578125 -49.171875 C 2.722656 -51.359375 1.796875 -53.710938 1.796875 -56.234375 C 1.796875 -58.085938 2.320312 -59.859375 3.375 -61.546875 C 4.4375 -63.242188 5.734375 -64.457031 7.265625 -65.1875 C 8.921875 -65.914062 10.78125 -66.28125 12.84375 -66.28125 C 13.4375 -66.351562 14.179688 -66.390625 15.078125 -66.390625 C 15.972656 -66.390625 17.019531 -66.390625 18.21875 -66.390625 L 41.40625 -66.390625 C 42.664062 -66.390625 43.707031 -66.390625 44.53125 -66.390625 C 45.363281 -66.390625 46.0625 -66.367188 46.625 -66.328125 C 47.1875 -66.296875 47.648438 -66.265625 48.015625 -66.234375 C 48.390625 -66.203125 48.738281 -66.15625 49.0625 -66.09375 C 51.65625 -65.6875 53.765625 -64.585938 55.390625 -62.796875 C 57.015625 -61.003906 57.828125 -58.816406 57.828125 -56.234375 C 57.828125 -54.773438 57.507812 -53.347656 56.875 -51.953125 C 56.25 -50.554688 55.375 -49.363281 54.25 -48.375 C 52.519531 -46.78125 49.695312 -45.984375 45.78125 -45.984375 L 40.8125 -45.984375 L 40.8125 -13.140625 C 40.8125 -10.816406 40.660156 -9.023438 40.359375 -7.765625 C 40.054688 -6.503906 39.539062 -5.3125 38.8125 -4.1875 C 37.820312 -2.65625 36.53125 -1.488281 34.9375 -0.6875 C 33.34375 0.101562 31.648438 0.5 29.859375 0.5 C 27.867188 0.5 26.023438 0.0351562 24.328125 -0.890625 C 22.640625 -1.828125 21.332031 -3.125 20.40625 -4.78125 C 19.8125 -5.90625 19.394531 -7.046875 19.15625 -8.203125 C 18.925781 -9.367188 18.8125 -11.015625 18.8125 -13.140625 Z M 29.359375 -6.765625 C 28.035156 -7.035156 27.15625 -7.597656 26.71875 -8.453125 C 26.289062 -9.316406 26.078125 -11.007812 26.078125 -13.53125 L 26.078125 -44.484375 C 26.078125 -45.679688 25.976562 -46.476562 25.78125 -46.875 C 25.582031 -47.269531 25.117188 -47.46875 24.390625 -47.46875 C 23.660156 -47.46875 23.175781 -47.269531 22.9375 -46.875 C 22.707031 -46.476562 22.59375 -45.679688 22.59375 -44.484375 L 22.59375 -12.9375 C 22.59375 -11.007812 22.675781 -9.582031 22.84375 -8.65625 C 23.007812 -7.726562 23.320312 -6.898438 23.78125 -6.171875 C 24.382812 -5.242188 25.164062 -4.53125 26.125 -4.03125 C 27.082031 -3.53125 28.09375 -3.28125 29.15625 -3.28125 C 30.6875 -3.28125 31.453125 -3.910156 31.453125 -5.171875 C 31.453125 -6.035156 31.019531 -6.535156 30.15625 -6.671875 Z M 16.21875 -49.765625 L 17.421875 -49.765625 C 18.546875 -49.765625 19.335938 -49.878906 19.796875 -50.109375 C 20.265625 -50.347656 20.5 -50.832031 20.5 -51.5625 C 20.5 -52.625 19.835938 -53.15625 18.515625 -53.15625 L 14.53125 -53.15625 C 13.738281 -53.15625 13.09375 -53.171875 12.59375 -53.203125 C 12.09375 -53.234375 11.675781 -53.3125 11.34375 -53.4375 C 11.007812 -53.570312 10.726562 -53.738281 10.5 -53.9375 C 10.269531 -54.144531 10.019531 -54.445312 9.75 -54.84375 C 9.351562 -55.375 9.019531 -55.738281 8.75 -55.9375 C 8.488281 -56.132812 8.191406 -56.234375 7.859375 -56.234375 C 6.671875 -56.234375 6.078125 -55.671875 6.078125 -54.546875 C 6.078125 -53.148438 6.9375 -51.921875 8.65625 -50.859375 C 9.382812 -50.390625 10.097656 -50.085938 10.796875 -49.953125 C 11.492188 -49.828125 12.707031 -49.765625 14.4375 -49.765625 Z M 46.578125 -49.765625 L 48.96875 -49.765625 C 50.03125 -49.898438 50.925781 -50.265625 51.65625 -50.859375 C 52.382812 -51.453125 52.75 -52.148438 52.75 -52.953125 C 52.75 -54.015625 52.1875 -54.546875 51.0625 -54.546875 C 50.59375 -54.546875 49.992188 -54.3125 49.265625 -53.84375 C 48.734375 -53.507812 48.316406 -53.3125 48.015625 -53.25 C 47.722656 -53.1875 47.3125 -53.15625 46.78125 -53.15625 L 42.296875 -53.15625 C 41.109375 -53.15625 40.3125 -53.035156 39.90625 -52.796875 C 39.507812 -52.566406 39.3125 -52.117188 39.3125 -51.453125 C 39.3125 -50.722656 39.492188 -50.257812 39.859375 -50.0625 C 40.222656 -49.863281 41.035156 -49.765625 42.296875 -49.765625 Z M 8.953125 -61.40625 C 8.421875 -61.40625 7.957031 -61.207031 7.5625 -60.8125 C 7.164062 -60.414062 6.96875 -59.953125 6.96875 -59.421875 C 6.96875 -58.890625 7.164062 -58.421875 7.5625 -58.015625 C 7.957031 -57.617188 8.421875 -57.421875 8.953125 -57.421875 C 9.554688 -57.421875 10.039062 -57.617188 10.40625 -58.015625 C 10.769531 -58.421875 10.953125 -58.890625 10.953125 -59.421875 C 10.953125 -59.953125 10.769531 -60.414062 10.40625 -60.8125 C 10.039062 -61.207031 9.554688 -61.40625 8.953125 -61.40625 Z M 8.953125 -61.40625 "/></g></g><g style="fill:#ffffff;fill-opacity:1;"><g transform="translate(363.088652, 783.347075)"><path style="stroke:none" d="M 20.109375 0 C 18.710938 0 17.515625 -0.015625 16.515625 -0.046875 C 15.523438 -0.078125 14.679688 -0.160156 13.984375 -0.296875 C 13.285156 -0.429688 12.65625 -0.597656 12.09375 -0.796875 C 11.53125 -0.992188 10.945312 -1.257812 10.34375 -1.59375 C 9.21875 -2.257812 8.253906 -3.085938 7.453125 -4.078125 C 6.660156 -5.078125 6.097656 -6.140625 5.765625 -7.265625 C 5.503906 -8.265625 5.335938 -9.273438 5.265625 -10.296875 C 5.203125 -11.328125 5.171875 -13.035156 5.171875 -15.421875 L 5.171875 -51.453125 C 5.171875 -52.847656 5.171875 -53.976562 5.171875 -54.84375 C 5.171875 -55.707031 5.203125 -56.421875 5.265625 -56.984375 C 5.335938 -57.546875 5.4375 -58.023438 5.5625 -58.421875 C 5.695312 -58.816406 5.867188 -59.28125 6.078125 -59.8125 C 6.535156 -61.070312 7.242188 -62.179688 8.203125 -63.140625 C 9.171875 -64.109375 10.21875 -64.828125 11.34375 -65.296875 C 11.945312 -65.492188 12.492188 -65.675781 12.984375 -65.84375 C 13.484375 -66.007812 14.0625 -66.125 14.71875 -66.1875 C 15.382812 -66.25 16.195312 -66.296875 17.15625 -66.328125 C 18.125 -66.367188 19.335938 -66.390625 20.796875 -66.390625 L 33.9375 -66.390625 C 35.394531 -66.390625 36.570312 -66.390625 37.46875 -66.390625 C 38.363281 -66.390625 39.078125 -66.367188 39.609375 -66.328125 C 40.140625 -66.296875 40.570312 -66.25 40.90625 -66.1875 C 41.238281 -66.125 41.601562 -66.054688 42 -65.984375 C 44.320312 -65.453125 46.210938 -64.289062 47.671875 -62.5 C 49.128906 -60.707031 49.859375 -58.648438 49.859375 -56.328125 C 49.859375 -54.742188 49.539062 -53.238281 48.90625 -51.8125 C 48.28125 -50.382812 47.40625 -49.203125 46.28125 -48.265625 C 45.28125 -47.410156 44.148438 -46.800781 42.890625 -46.4375 C 41.628906 -46.070312 39.972656 -45.890625 37.921875 -45.890625 L 26.96875 -45.890625 L 26.96875 -41.3125 L 34.828125 -41.3125 C 37.953125 -41.3125 40.34375 -40.628906 42 -39.265625 C 43.65625 -37.898438 44.484375 -35.957031 44.484375 -33.4375 C 44.484375 -30.851562 43.523438 -28.765625 41.609375 -27.171875 C 40.742188 -26.503906 39.828125 -26.054688 38.859375 -25.828125 C 37.898438 -25.597656 36.554688 -25.484375 34.828125 -25.484375 L 26.96875 -25.484375 L 26.96875 -20.5 L 37.03125 -20.5 C 39.414062 -20.5 41.253906 -20.316406 42.546875 -19.953125 C 43.835938 -19.585938 45.050781 -18.941406 46.1875 -18.015625 C 48.570312 -15.953125 49.765625 -13.363281 49.765625 -10.25 C 49.765625 -8.726562 49.445312 -7.253906 48.8125 -5.828125 C 48.1875 -4.398438 47.3125 -3.222656 46.1875 -2.296875 C 45.65625 -1.828125 45.101562 -1.441406 44.53125 -1.140625 C 43.96875 -0.847656 43.351562 -0.617188 42.6875 -0.453125 C 42.03125 -0.285156 41.253906 -0.164062 40.359375 -0.09375 C 39.460938 -0.03125 38.382812 0 37.125 0 Z M 28.5625 -29.265625 L 35.328125 -29.265625 C 36.992188 -29.265625 38.171875 -29.425781 38.859375 -29.75 C 39.554688 -30.082031 39.90625 -30.679688 39.90625 -31.546875 C 39.90625 -32.679688 39.375 -33.25 38.3125 -33.25 C 38.113281 -33.25 37.816406 -33.179688 37.421875 -33.046875 C 36.828125 -32.910156 36.394531 -32.828125 36.125 -32.796875 C 35.863281 -32.765625 35.269531 -32.75 34.34375 -32.75 L 27.5625 -32.75 C 26.175781 -32.75 25.484375 -32.148438 25.484375 -30.953125 C 25.484375 -29.828125 26.3125 -29.265625 27.96875 -29.265625 Z M 37.828125 -3.78125 C 39.210938 -3.78125 40.253906 -3.847656 40.953125 -3.984375 C 41.648438 -4.117188 42.265625 -4.347656 42.796875 -4.671875 C 43.921875 -5.398438 44.484375 -6.195312 44.484375 -7.0625 C 44.484375 -7.53125 44.332031 -7.929688 44.03125 -8.265625 C 43.738281 -8.597656 43.359375 -8.765625 42.890625 -8.765625 C 42.691406 -8.765625 42.492188 -8.710938 42.296875 -8.609375 C 42.097656 -8.503906 41.769531 -8.320312 41.3125 -8.0625 C 40.78125 -7.664062 40.25 -7.414062 39.71875 -7.3125 C 39.1875 -7.21875 38.289062 -7.171875 37.03125 -7.171875 L 23.890625 -7.171875 L 22.890625 -7.265625 C 21.492188 -7.128906 20.796875 -6.566406 20.796875 -5.578125 C 20.796875 -4.847656 21.007812 -4.363281 21.4375 -4.125 C 21.875 -3.894531 22.691406 -3.78125 23.890625 -3.78125 Z M 12.25 -61.40625 C 11.71875 -61.40625 11.25 -61.207031 10.84375 -60.8125 C 10.445312 -60.414062 10.25 -59.953125 10.25 -59.421875 C 10.25 -58.890625 10.445312 -58.421875 10.84375 -58.015625 C 11.25 -57.617188 11.71875 -57.421875 12.25 -57.421875 C 12.769531 -57.421875 13.226562 -57.617188 13.625 -58.015625 C 14.03125 -58.421875 14.234375 -58.890625 14.234375 -59.421875 C 14.234375 -59.953125 14.03125 -60.414062 13.625 -60.8125 C 13.226562 -61.207031 12.769531 -61.40625 12.25 -61.40625 Z M 11.046875 -6.765625 C 12.171875 -6.765625 12.734375 -7.296875 12.734375 -8.359375 C 12.734375 -8.492188 12.71875 -8.625 12.6875 -8.75 C 12.65625 -8.882812 12.640625 -9.050781 12.640625 -9.25 C 12.503906 -9.71875 12.421875 -10.117188 12.390625 -10.453125 C 12.359375 -10.785156 12.34375 -11.316406 12.34375 -12.046875 L 12.34375 -53.25 C 12.34375 -54.507812 12.242188 -55.335938 12.046875 -55.734375 C 11.847656 -56.128906 11.382812 -56.328125 10.65625 -56.328125 C 9.925781 -56.328125 9.457031 -56.113281 9.25 -55.6875 C 9.050781 -55.257812 8.953125 -54.445312 8.953125 -53.25 L 8.953125 -13.140625 C 8.953125 -10.617188 9.082031 -8.925781 9.34375 -8.0625 C 9.613281 -7.195312 10.179688 -6.765625 11.046875 -6.765625 Z M 27.46875 -53.15625 C 26.144531 -53.15625 25.484375 -52.585938 25.484375 -51.453125 C 25.484375 -50.722656 25.679688 -50.242188 26.078125 -50.015625 C 26.472656 -49.785156 27.300781 -49.671875 28.5625 -49.671875 L 37.828125 -49.671875 C 39.285156 -49.671875 40.34375 -49.734375 41 -49.859375 C 41.664062 -49.992188 42.265625 -50.226562 42.796875 -50.5625 C 43.921875 -51.289062 44.484375 -52.085938 44.484375 -52.953125 C 44.484375 -53.410156 44.332031 -53.804688 44.03125 -54.140625 C 43.738281 -54.472656 43.359375 -54.640625 42.890625 -54.640625 C 42.566406 -54.640625 42.039062 -54.410156 41.3125 -53.953125 C 40.707031 -53.617188 40.171875 -53.382812 39.703125 -53.25 C 39.242188 -53.113281 38.351562 -53.046875 37.03125 -53.046875 L 28.5625 -53.15625 Z M 27.46875 -53.15625 "/></g></g><g style="fill:#ffffff;fill-opacity:1;"><g transform="translate(415.437354, 783.347075)"><path style="stroke:none" d="M 27.078125 -19.609375 L 27.078125 -13.140625 C 27.078125 -10.816406 26.925781 -9.023438 26.625 -7.765625 C 26.320312 -6.503906 25.804688 -5.3125 25.078125 -4.1875 C 24.085938 -2.71875 22.796875 -1.566406 21.203125 -0.734375 C 19.609375 0.0859375 17.914062 0.5 16.125 0.5 C 14.132812 0.5 12.289062 0.0351562 10.59375 -0.890625 C 8.90625 -1.828125 7.597656 -3.125 6.671875 -4.78125 C 6.066406 -5.90625 5.664062 -7.046875 5.46875 -8.203125 C 5.269531 -9.367188 5.171875 -11.015625 5.171875 -13.140625 L 5.171875 -53.75 C 5.171875 -56.132812 5.4375 -58.085938 5.96875 -59.609375 C 6.5 -61.140625 7.429688 -62.4375 8.765625 -63.5 C 10.023438 -64.5625 11.398438 -65.304688 12.890625 -65.734375 C 14.378906 -66.171875 16.382812 -66.390625 18.90625 -66.390625 L 27.875 -66.390625 C 30.59375 -66.390625 32.679688 -66.304688 34.140625 -66.140625 C 35.597656 -65.972656 37.054688 -65.722656 38.515625 -65.390625 C 41.109375 -64.660156 43.460938 -63.566406 45.578125 -62.109375 C 47.703125 -60.648438 49.523438 -58.90625 51.046875 -56.875 C 52.578125 -54.851562 53.773438 -52.613281 54.640625 -50.15625 C 55.503906 -47.707031 55.9375 -45.15625 55.9375 -42.5 C 55.9375 -39.25 55.367188 -36.296875 54.234375 -33.640625 C 53.109375 -30.984375 51.285156 -28.265625 48.765625 -25.484375 L 54.046875 -17.3125 C 54.710938 -16.25 55.226562 -15.101562 55.59375 -13.875 C 55.957031 -12.65625 56.140625 -11.414062 56.140625 -10.15625 C 56.140625 -8.625 55.851562 -7.210938 55.28125 -5.921875 C 54.71875 -4.628906 53.9375 -3.515625 52.9375 -2.578125 C 51.945312 -1.648438 50.785156 -0.90625 49.453125 -0.34375 C 48.128906 0.21875 46.707031 0.5 45.1875 0.5 C 43.132812 0.5 41.289062 0.00390625 39.65625 -0.984375 C 38.03125 -1.984375 36.65625 -3.378906 35.53125 -5.171875 Z M 28.96875 -38.71875 C 30.15625 -38.71875 30.914062 -38.75 31.25 -38.8125 C 33.375 -39.144531 34.4375 -40.273438 34.4375 -42.203125 C 34.4375 -44.585938 32.613281 -45.78125 28.96875 -45.78125 L 27.078125 -45.78125 L 27.078125 -38.71875 Z M 28.765625 -52.75 C 27.640625 -52.75 26.859375 -52.648438 26.421875 -52.453125 C 25.992188 -52.253906 25.78125 -51.789062 25.78125 -51.0625 C 25.78125 -50.332031 25.976562 -49.847656 26.375 -49.609375 C 26.769531 -49.378906 27.566406 -49.265625 28.765625 -49.265625 L 29.765625 -49.265625 C 31.023438 -49.265625 32.035156 -49.195312 32.796875 -49.0625 C 33.554688 -48.9375 34.234375 -48.707031 34.828125 -48.375 C 37.085938 -47.039062 38.21875 -45.082031 38.21875 -42.5 L 38.3125 -41.3125 C 38.3125 -39.84375 38.910156 -39.109375 40.109375 -39.109375 C 41.171875 -39.109375 41.703125 -40.039062 41.703125 -41.90625 C 41.703125 -45.289062 40.65625 -47.941406 38.5625 -49.859375 C 36.476562 -51.785156 33.546875 -52.75 29.765625 -52.75 Z M 37.515625 -9.453125 L 38.21875 -8.265625 C 39.414062 -6.335938 40.507812 -5.007812 41.5 -4.28125 C 42.5 -3.550781 43.695312 -3.1875 45.09375 -3.1875 C 46.613281 -3.1875 47.375 -3.816406 47.375 -5.078125 C 47.375 -6.003906 46.84375 -6.566406 45.78125 -6.765625 L 44.59375 -6.96875 C 43.789062 -7.164062 43.070312 -7.59375 42.4375 -8.25 C 41.8125 -8.914062 40.9375 -10.179688 39.8125 -12.046875 L 31.15625 -26.96875 C 30.425781 -28.164062 29.695312 -28.765625 28.96875 -28.765625 C 27.90625 -28.765625 27.375 -28.234375 27.375 -27.171875 C 27.375 -26.640625 27.472656 -26.242188 27.671875 -25.984375 L 28.171875 -25.078125 Z M 12.25 -61.515625 C 11.71875 -61.515625 11.25 -61.3125 10.84375 -60.90625 C 10.445312 -60.507812 10.25 -60.046875 10.25 -59.515625 C 10.25 -58.984375 10.445312 -58.519531 10.84375 -58.125 C 11.25 -57.726562 11.71875 -57.53125 12.25 -57.53125 C 12.769531 -57.53125 13.226562 -57.726562 13.625 -58.125 C 14.03125 -58.519531 14.234375 -58.984375 14.234375 -59.515625 C 14.234375 -60.046875 14.03125 -60.507812 13.625 -60.90625 C 13.226562 -61.3125 12.769531 -61.515625 12.25 -61.515625 Z M 8.953125 -12.9375 C 8.953125 -11.007812 9.019531 -9.582031 9.15625 -8.65625 C 9.289062 -7.726562 9.585938 -6.898438 10.046875 -6.171875 C 10.648438 -5.242188 11.429688 -4.53125 12.390625 -4.03125 C 13.347656 -3.53125 14.359375 -3.28125 15.421875 -3.28125 C 16.953125 -3.28125 17.71875 -3.910156 17.71875 -5.171875 C 17.71875 -6.035156 17.316406 -6.535156 16.515625 -6.671875 L 15.625 -6.765625 C 14.300781 -7.035156 13.421875 -7.597656 12.984375 -8.453125 C 12.554688 -9.316406 12.34375 -11.007812 12.34375 -13.53125 L 12.34375 -53.25 C 12.34375 -54.507812 12.242188 -55.335938 12.046875 -55.734375 C 11.847656 -56.128906 11.382812 -56.328125 10.65625 -56.328125 C 9.925781 -56.328125 9.457031 -56.128906 9.25 -55.734375 C 9.050781 -55.335938 8.953125 -54.507812 8.953125 -53.25 Z M 8.953125 -12.9375 "/></g></g><g style="fill:#ffffff;fill-opacity:1;"><g transform="translate(475.548748, 783.347075)"><path style="stroke:none" d="M 5.171875 -53.25 C 5.171875 -55.570312 5.300781 -57.363281 5.5625 -58.625 C 5.832031 -59.882812 6.367188 -61.078125 7.171875 -62.203125 C 8.097656 -63.660156 9.359375 -64.804688 10.953125 -65.640625 C 12.546875 -66.472656 14.269531 -66.890625 16.125 -66.890625 C 18.050781 -66.890625 19.859375 -66.40625 21.546875 -65.4375 C 23.242188 -64.476562 24.554688 -63.171875 25.484375 -61.515625 C 26.078125 -60.453125 26.488281 -59.335938 26.71875 -58.171875 C 26.957031 -57.015625 27.078125 -55.375 27.078125 -53.25 L 27.078125 -13.140625 C 27.078125 -10.816406 26.925781 -9.023438 26.625 -7.765625 C 26.320312 -6.503906 25.804688 -5.3125 25.078125 -4.1875 C 24.085938 -2.65625 22.796875 -1.488281 21.203125 -0.6875 C 19.609375 0.101562 17.914062 0.5 16.125 0.5 C 14.132812 0.5 12.289062 0.0351562 10.59375 -0.890625 C 8.90625 -1.828125 7.597656 -3.125 6.671875 -4.78125 C 6.066406 -5.90625 5.664062 -7.046875 5.46875 -8.203125 C 5.269531 -9.367188 5.171875 -11.015625 5.171875 -13.140625 Z M 12.25 -57.53125 C 12.769531 -57.53125 13.226562 -57.726562 13.625 -58.125 C 14.03125 -58.519531 14.234375 -58.984375 14.234375 -59.515625 C 14.234375 -60.046875 14.03125 -60.507812 13.625 -60.90625 C 13.226562 -61.3125 12.769531 -61.515625 12.25 -61.515625 C 11.71875 -61.515625 11.25 -61.3125 10.84375 -60.90625 C 10.445312 -60.507812 10.25 -60.046875 10.25 -59.515625 C 10.25 -58.984375 10.445312 -58.519531 10.84375 -58.125 C 11.25 -57.726562 11.71875 -57.53125 12.25 -57.53125 Z M 15.625 -6.765625 C 14.300781 -7.035156 13.421875 -7.597656 12.984375 -8.453125 C 12.554688 -9.316406 12.34375 -11.007812 12.34375 -13.53125 L 12.34375 -53.25 C 12.34375 -54.507812 12.242188 -55.335938 12.046875 -55.734375 C 11.847656 -56.128906 11.382812 -56.328125 10.65625 -56.328125 C 9.925781 -56.328125 9.457031 -56.128906 9.25 -55.734375 C 9.050781 -55.335938 8.953125 -54.507812 8.953125 -53.25 L 8.953125 -12.9375 C 8.953125 -11.007812 9.019531 -9.582031 9.15625 -8.65625 C 9.289062 -7.726562 9.585938 -6.898438 10.046875 -6.171875 C 10.648438 -5.242188 11.429688 -4.53125 12.390625 -4.03125 C 13.347656 -3.53125 14.359375 -3.28125 15.421875 -3.28125 C 16.953125 -3.28125 17.71875 -3.910156 17.71875 -5.171875 C 17.71875 -6.035156 17.316406 -6.535156 16.515625 -6.671875 Z M 15.625 -6.765625 "/></g></g><g style="fill:#ffffff;fill-opacity:1;"><g transform="translate(507.694429, 783.347075)"><path style="stroke:none" d="M 27.078125 -26.28125 L 27.078125 -13.140625 C 27.078125 -10.816406 26.925781 -9.023438 26.625 -7.765625 C 26.320312 -6.503906 25.804688 -5.3125 25.078125 -4.1875 C 24.085938 -2.71875 22.796875 -1.566406 21.203125 -0.734375 C 19.609375 0.0859375 17.914062 0.5 16.125 0.5 C 14.132812 0.5 12.289062 0.0351562 10.59375 -0.890625 C 8.90625 -1.828125 7.597656 -3.125 6.671875 -4.78125 C 6.066406 -5.90625 5.664062 -7.046875 5.46875 -8.203125 C 5.269531 -9.367188 5.171875 -11.015625 5.171875 -13.140625 L 5.171875 -54.640625 C 5.171875 -58.421875 6.179688 -61.40625 8.203125 -63.59375 C 10.234375 -65.789062 13.003906 -66.890625 16.515625 -66.890625 C 19.566406 -66.890625 22.320312 -65.425781 24.78125 -62.5 L 42.203125 -41.109375 L 42.203125 -53.25 C 42.203125 -55.570312 42.347656 -57.363281 42.640625 -58.625 C 42.941406 -59.882812 43.457031 -61.078125 44.1875 -62.203125 C 45.1875 -63.660156 46.484375 -64.804688 48.078125 -65.640625 C 49.671875 -66.472656 51.363281 -66.890625 53.15625 -66.890625 C 55.144531 -66.890625 56.96875 -66.40625 58.625 -65.4375 C 60.28125 -64.476562 61.570312 -63.171875 62.5 -61.515625 C 63.101562 -60.453125 63.519531 -59.335938 63.75 -58.171875 C 63.976562 -57.015625 64.09375 -55.375 64.09375 -53.25 L 64.09375 -13.234375 C 64.09375 -10.710938 63.925781 -8.785156 63.59375 -7.453125 C 63.269531 -6.128906 62.640625 -4.835938 61.703125 -3.578125 C 59.515625 -0.859375 56.5625 0.5 52.84375 0.5 C 51.125 0.5 49.566406 0.101562 48.171875 -0.6875 C 46.773438 -1.488281 45.347656 -2.816406 43.890625 -4.671875 Z M 52.75 -7.171875 C 52.21875 -7.296875 51.753906 -7.523438 51.359375 -7.859375 C 50.960938 -8.191406 50.5 -8.722656 49.96875 -9.453125 L 49.265625 -10.25 L 31.75 -32.25 C 31.15625 -32.976562 30.722656 -33.457031 30.453125 -33.6875 C 30.191406 -33.925781 29.863281 -34.046875 29.46875 -34.046875 C 29.0625 -34.046875 28.691406 -33.878906 28.359375 -33.546875 C 28.035156 -33.210938 27.875 -32.8125 27.875 -32.34375 C 27.875 -31.945312 28.269531 -31.25 29.0625 -30.25 L 46.78125 -7.5625 C 48.039062 -5.96875 49.066406 -4.90625 49.859375 -4.375 C 50.660156 -3.84375 51.59375 -3.578125 52.65625 -3.578125 C 54.039062 -3.578125 54.734375 -4.207031 54.734375 -5.46875 C 54.734375 -6.269531 54.367188 -6.769531 53.640625 -6.96875 Z M 12.25 -61.515625 C 11.71875 -61.515625 11.25 -61.3125 10.84375 -60.90625 C 10.445312 -60.507812 10.25 -60.046875 10.25 -59.515625 C 10.25 -58.984375 10.445312 -58.519531 10.84375 -58.125 C 11.25 -57.726562 11.71875 -57.53125 12.25 -57.53125 C 12.769531 -57.53125 13.226562 -57.726562 13.625 -58.125 C 14.03125 -58.519531 14.234375 -58.984375 14.234375 -59.515625 C 14.234375 -60.046875 14.03125 -60.507812 13.625 -60.90625 C 13.226562 -61.3125 12.769531 -61.515625 12.25 -61.515625 Z M 8.953125 -12.9375 C 8.953125 -11.007812 9.019531 -9.582031 9.15625 -8.65625 C 9.289062 -7.726562 9.585938 -6.898438 10.046875 -6.171875 C 10.648438 -5.242188 11.429688 -4.53125 12.390625 -4.03125 C 13.347656 -3.53125 14.359375 -3.28125 15.421875 -3.28125 C 16.953125 -3.28125 17.71875 -3.910156 17.71875 -5.171875 C 17.71875 -6.035156 17.316406 -6.535156 16.515625 -6.671875 L 15.625 -6.765625 C 14.300781 -7.035156 13.421875 -7.597656 12.984375 -8.453125 C 12.554688 -9.316406 12.34375 -11.007812 12.34375 -13.53125 L 12.34375 -53.25 C 12.34375 -54.507812 12.242188 -55.335938 12.046875 -55.734375 C 11.847656 -56.128906 11.382812 -56.328125 10.65625 -56.328125 C 9.925781 -56.328125 9.457031 -56.128906 9.25 -55.734375 C 9.050781 -55.335938 8.953125 -54.507812 8.953125 -53.25 Z M 49.375 -61.515625 C 48.84375 -61.515625 48.375 -61.3125 47.96875 -60.90625 C 47.570312 -60.507812 47.375 -60.046875 47.375 -59.515625 C 47.375 -58.984375 47.570312 -58.519531 47.96875 -58.125 C 48.375 -57.726562 48.84375 -57.53125 49.375 -57.53125 C 49.894531 -57.53125 50.351562 -57.726562 50.75 -58.125 C 51.15625 -58.519531 51.359375 -58.984375 51.359375 -59.515625 C 51.359375 -60.046875 51.15625 -60.507812 50.75 -60.90625 C 50.351562 -61.3125 49.894531 -61.515625 49.375 -61.515625 Z M 45.984375 -37.328125 C 45.984375 -36.128906 46.082031 -35.3125 46.28125 -34.875 C 46.476562 -34.445312 46.941406 -34.234375 47.671875 -34.234375 C 48.398438 -34.234375 48.878906 -34.445312 49.109375 -34.875 C 49.347656 -35.3125 49.46875 -36.128906 49.46875 -37.328125 L 49.46875 -53.25 C 49.46875 -54.507812 49.347656 -55.335938 49.109375 -55.734375 C 48.878906 -56.128906 48.398438 -56.328125 47.671875 -56.328125 C 46.941406 -56.328125 46.476562 -56.128906 46.28125 -55.734375 C 46.082031 -55.335938 45.984375 -54.507812 45.984375 -53.25 Z M 45.984375 -37.328125 "/></g></g><g style="fill:#ffffff;fill-opacity:1;"><g transform="translate(576.961853, 783.347075)"><path style="stroke:none" d="M 42.703125 -22.796875 C 39.710938 -22.796875 37.40625 -23.488281 35.78125 -24.875 C 34.15625 -26.269531 33.34375 -28.226562 33.34375 -30.75 C 33.34375 -33.46875 34.367188 -35.5625 36.421875 -37.03125 C 37.285156 -37.625 38.210938 -38.050781 39.203125 -38.3125 C 40.203125 -38.582031 41.5 -38.71875 43.09375 -38.71875 L 51.15625 -38.625 C 52.550781 -38.625 53.742188 -38.585938 54.734375 -38.515625 C 55.734375 -38.453125 56.582031 -38.367188 57.28125 -38.265625 C 57.976562 -38.171875 58.554688 -38.039062 59.015625 -37.875 C 59.484375 -37.707031 59.953125 -37.523438 60.421875 -37.328125 C 64.066406 -35.398438 65.890625 -31.679688 65.890625 -26.171875 L 65.796875 -19.90625 C 65.796875 -18.644531 65.773438 -17.628906 65.734375 -16.859375 C 65.703125 -16.097656 65.648438 -15.46875 65.578125 -14.96875 C 65.515625 -14.476562 65.453125 -14.066406 65.390625 -13.734375 C 65.328125 -13.398438 65.226562 -13.035156 65.09375 -12.640625 C 64.5625 -10.910156 63.332031 -9.117188 61.40625 -7.265625 C 59.488281 -5.410156 57.066406 -3.71875 54.140625 -2.1875 C 49.171875 0.394531 43.929688 1.6875 38.421875 1.6875 C 33.578125 1.6875 29.015625 0.773438 24.734375 -1.046875 C 20.453125 -2.867188 16.71875 -5.351562 13.53125 -8.5 C 10.351562 -11.65625 7.847656 -15.359375 6.015625 -19.609375 C 4.191406 -23.859375 3.28125 -28.40625 3.28125 -33.25 C 3.28125 -38.09375 4.191406 -42.617188 6.015625 -46.828125 C 7.847656 -51.046875 10.351562 -54.710938 13.53125 -57.828125 C 16.71875 -60.941406 20.453125 -63.410156 24.734375 -65.234375 C 29.015625 -67.066406 33.578125 -67.984375 38.421875 -67.984375 C 44.859375 -67.984375 50.765625 -66.359375 56.140625 -63.109375 C 60.984375 -60.179688 63.40625 -56.597656 63.40625 -52.359375 C 63.40625 -50.890625 63.117188 -49.492188 62.546875 -48.171875 C 61.984375 -46.847656 61.222656 -45.6875 60.265625 -44.6875 C 59.304688 -43.695312 58.175781 -42.898438 56.875 -42.296875 C 55.582031 -41.703125 54.238281 -41.40625 52.84375 -41.40625 C 51.914062 -41.40625 50.9375 -41.550781 49.90625 -41.84375 C 48.882812 -42.144531 48.007812 -42.492188 47.28125 -42.890625 L 44 -44.78125 C 43.257812 -45.25 42.34375 -45.613281 41.25 -45.875 C 40.15625 -46.144531 39.078125 -46.28125 38.015625 -46.28125 C 36.296875 -46.28125 34.65625 -45.945312 33.09375 -45.28125 C 31.53125 -44.625 30.148438 -43.710938 28.953125 -42.546875 C 27.765625 -41.390625 26.820312 -40.046875 26.125 -38.515625 C 25.425781 -36.992188 25.078125 -35.367188 25.078125 -33.640625 C 25.078125 -31.785156 25.441406 -30.046875 26.171875 -28.421875 C 26.898438 -26.796875 27.878906 -25.367188 29.109375 -24.140625 C 30.335938 -22.910156 31.765625 -21.929688 33.390625 -21.203125 C 35.015625 -20.472656 36.757812 -20.109375 38.625 -20.109375 C 40.28125 -20.109375 41.820312 -20.351562 43.25 -20.84375 C 44.675781 -21.34375 45.6875 -21.992188 46.28125 -22.796875 Z M 17.3125 -55.046875 C 16.71875 -55.046875 16.222656 -54.84375 15.828125 -54.4375 C 15.429688 -54.039062 15.234375 -53.578125 15.234375 -53.046875 C 15.234375 -52.515625 15.429688 -52.050781 15.828125 -51.65625 C 16.222656 -51.257812 16.71875 -51.0625 17.3125 -51.0625 C 17.84375 -51.0625 18.304688 -51.257812 18.703125 -51.65625 C 19.109375 -52.050781 19.3125 -52.515625 19.3125 -53.046875 C 19.3125 -53.578125 19.109375 -54.039062 18.703125 -54.4375 C 18.304688 -54.84375 17.84375 -55.046875 17.3125 -55.046875 Z M 50.5625 -8.265625 C 48.832031 -7.335938 46.90625 -6.609375 44.78125 -6.078125 C 42.664062 -5.546875 40.546875 -5.28125 38.421875 -5.28125 C 34.972656 -5.28125 31.617188 -5.925781 28.359375 -7.21875 C 25.109375 -8.507812 22.191406 -10.347656 19.609375 -12.734375 C 13.765625 -18.109375 10.84375 -25.109375 10.84375 -33.734375 C 10.84375 -38.453125 12.140625 -42.867188 14.734375 -46.984375 C 15.265625 -47.835938 15.53125 -48.5 15.53125 -48.96875 C 15.53125 -50.03125 15 -50.5625 13.9375 -50.5625 C 13.332031 -50.5625 12.664062 -50.03125 11.9375 -48.96875 C 10.550781 -46.78125 9.457031 -44.273438 8.65625 -41.453125 C 7.863281 -38.628906 7.46875 -35.789062 7.46875 -32.9375 C 7.46875 -28.625 8.28125 -24.59375 9.90625 -20.84375 C 11.53125 -17.101562 13.734375 -13.835938 16.515625 -11.046875 C 19.304688 -8.265625 22.59375 -6.054688 26.375 -4.421875 C 30.15625 -2.796875 34.238281 -1.984375 38.625 -1.984375 C 40.414062 -1.984375 42.253906 -2.164062 44.140625 -2.53125 C 46.035156 -2.894531 47.742188 -3.359375 49.265625 -3.921875 C 50.796875 -4.492188 52.039062 -5.109375 53 -5.765625 C 53.957031 -6.429688 54.4375 -7.097656 54.4375 -7.765625 C 54.4375 -8.160156 54.285156 -8.503906 53.984375 -8.796875 C 53.691406 -9.097656 53.378906 -9.25 53.046875 -9.25 C 52.847656 -9.25 52.632812 -9.195312 52.40625 -9.09375 C 52.175781 -9 51.894531 -8.890625 51.5625 -8.765625 Z M 45.484375 -26.28125 C 47.015625 -26.28125 48.109375 -26.0625 48.765625 -25.625 C 49.429688 -25.195312 49.863281 -24.382812 50.0625 -23.1875 C 50.332031 -21.863281 50.929688 -21.203125 51.859375 -21.203125 C 52.984375 -21.203125 53.546875 -21.898438 53.546875 -23.296875 C 53.546875 -24.222656 53.226562 -25.21875 52.59375 -26.28125 C 51.96875 -27.34375 51.222656 -28.140625 50.359375 -28.671875 C 49.765625 -29.066406 49.082031 -29.328125 48.3125 -29.453125 C 47.550781 -29.585938 46.609375 -29.65625 45.484375 -29.65625 L 42.40625 -29.65625 C 41.34375 -29.65625 40.8125 -29.890625 40.8125 -30.359375 C 40.8125 -30.492188 40.859375 -30.625 40.953125 -30.75 C 41.054688 -30.882812 41.175781 -31.050781 41.3125 -31.25 C 41.4375 -31.519531 41.5 -31.785156 41.5 -32.046875 C 41.5 -32.515625 41.332031 -32.910156 41 -33.234375 C 40.675781 -33.566406 40.25 -33.734375 39.71875 -33.734375 C 38.988281 -33.734375 38.359375 -33.398438 37.828125 -32.734375 C 37.296875 -32.078125 37.03125 -31.25 37.03125 -30.25 C 37.03125 -28.925781 37.507812 -27.914062 38.46875 -27.21875 C 39.425781 -26.519531 40.769531 -26.171875 42.5 -26.171875 Z M 56.234375 -50.265625 C 56.035156 -50.265625 55.816406 -50.226562 55.578125 -50.15625 C 55.347656 -50.09375 55.003906 -49.894531 54.546875 -49.5625 C 53.742188 -49.101562 53.191406 -48.820312 52.890625 -48.71875 C 52.597656 -48.625 52.285156 -48.578125 51.953125 -48.578125 C 51.554688 -48.578125 51.175781 -48.640625 50.8125 -48.765625 C 50.445312 -48.898438 49.898438 -49.203125 49.171875 -49.671875 C 47.179688 -50.859375 45.375 -51.679688 43.75 -52.140625 C 42.125 -52.609375 40.28125 -52.84375 38.21875 -52.84375 C 36.894531 -52.84375 35.601562 -52.726562 34.34375 -52.5 C 33.082031 -52.269531 31.953125 -51.953125 30.953125 -51.546875 C 29.960938 -51.148438 29.148438 -50.703125 28.515625 -50.203125 C 27.878906 -49.710938 27.5625 -49.234375 27.5625 -48.765625 C 27.5625 -47.640625 28.09375 -47.078125 29.15625 -47.078125 C 29.425781 -47.078125 29.644531 -47.109375 29.8125 -47.171875 C 29.976562 -47.242188 30.328125 -47.410156 30.859375 -47.671875 C 32.117188 -48.335938 33.359375 -48.800781 34.578125 -49.0625 C 35.804688 -49.332031 37.085938 -49.46875 38.421875 -49.46875 C 41.398438 -49.46875 44.253906 -48.671875 46.984375 -47.078125 L 48.96875 -45.890625 C 50.164062 -45.222656 51.296875 -44.890625 52.359375 -44.890625 C 53.617188 -44.890625 54.84375 -45.269531 56.03125 -46.03125 C 57.226562 -46.789062 57.828125 -47.640625 57.828125 -48.578125 C 57.828125 -49.703125 57.296875 -50.265625 56.234375 -50.265625 Z M 56.234375 -50.265625 "/></g></g></g></svg>